<svg width="64" height="64" viewBox="0 0 64 64" fill="none" xmlns="http://www.w3.org/2000/svg">
<g clip-path="url(#clip0_5_133)">
<path d="M11 26.222C11 29.0805 12.0452 31.8219 13.9058 33.8432C15.7663 35.8645 18.2898 37 20.921 37H45.7235C47.6589 37.0023 49.5336 36.2669 51.0211 34.922C52.5087 33.577 53.5148 31.7078 53.8641 29.6398C54.2135 27.5719 53.8841 25.4363 52.9331 23.6052C51.9822 21.774 50.4701 20.3633 48.6602 19.6188C49.0693 18.3547 49.1449 16.9916 48.8784 15.6833C48.612 14.375 48.0142 13.1737 47.1524 12.2151C46.2907 11.2565 45.1993 10.5788 44.0017 10.2585C42.8041 9.93814 41.5479 9.988 40.375 10.4024C39.6164 7.24093 37.7549 4.52435 35.1847 2.82794C32.6145 1.13153 29.5374 0.588499 26.6051 1.31384C23.6728 2.03919 21.1155 3.97595 19.4747 6.71399C17.8339 9.45203 17.2386 12.7764 17.8146 15.983C15.8317 16.694 14.1057 18.0663 12.8822 19.9046C11.6587 21.7429 11.0001 23.9535 11 26.222Z" fill="#F2F2F2" stroke="#F2F2F2" stroke-width="1.5" stroke-linecap="round" stroke-linejoin="round"/>
<path d="M14.1048 58.0449C12.8674 53.4267 16.2245 50.6295 16.2722 43.5953C16.2883 42.2469 17.8959 41.8794 18.526 42.9914C22.0923 49.0888 26.3864 49.7885 27.6278 54.4214C28.7229 58.5084 26.5799 62.6249 22.847 63.6252C19.1141 64.6254 15.1999 62.1319 14.1048 58.0449Z" fill="#F2F2F2"/>
<path d="M39.1049 58.0449C37.8674 53.4267 41.2245 50.6295 41.2722 43.5953C41.2884 42.2469 42.8959 41.8794 43.5261 42.9914C47.0924 49.0888 51.3864 49.7885 52.6278 54.4214C53.7229 58.5084 51.5799 62.6249 47.847 63.6252C44.1141 64.6254 40.2 62.1319 39.1049 58.0449Z" fill="#F2F2F2"/>
</g>
<defs>
<clipPath id="clip0_5_133">
<rect width="64" height="64" fill="white"/>
</clipPath>
</defs>
</svg>
