<svg width="64" height="64" viewBox="0 0 64 64" fill="none" xmlns="http://www.w3.org/2000/svg">
<path d="M57.0745 43.625L52.5252 40.9297L56.4826 39.8398C57.4575 39.5703 58.0377 38.5391 57.7708 37.543L57.295 35.7266C57.0397 34.7305 56.03 34.1328 55.0552 34.4023L45.8058 36.9453L37.4732 32L45.8174 27.0547L55.0668 29.5977C56.0416 29.8672 57.0397 29.2695 57.3066 28.2734L57.7824 26.457C58.0377 25.4609 57.4691 24.4297 56.4942 24.1602L52.5368 23.0703L57.0861 20.375C57.9565 19.8594 58.2582 18.7109 57.7592 17.8086L56.8424 16.1797C56.3434 15.2773 55.2177 14.9727 54.3473 15.4883L49.798 18.1836L50.8541 14.1172C51.1094 13.1211 50.5407 12.0898 49.5659 11.8203L47.8019 11.3398C46.827 11.0703 45.829 11.668 45.562 12.6641L43.0901 22.1562L34.7459 27.1016V17.1992L41.5118 10.25C42.2197 9.52344 42.2197 8.32812 41.5118 7.60156L40.2236 6.27734C39.5157 5.55078 38.3552 5.55078 37.6472 6.27734L34.7575 9.25391V3.875C34.7575 2.84375 33.9451 2 32.9355 2H31.1135C30.1038 2 29.2914 2.84375 29.2914 3.875V9.27734L26.4017 6.30078C25.6938 5.57422 24.5333 5.57422 23.8253 6.30078L22.4907 7.625C21.7828 8.35156 21.7828 9.54687 22.4907 10.2734L29.2566 17.2227V27.125L20.9124 22.1797L18.4405 12.6875C18.1852 11.6914 17.1755 11.0938 16.2007 11.3633L14.4366 11.8438C13.4618 12.1133 12.8815 13.1445 13.1485 14.1406L14.2045 18.207L9.65527 15.5117C8.78487 14.9961 7.67076 15.3008 7.16013 16.2031L6.24331 17.832C5.74428 18.7344 6.03441 19.8711 6.91642 20.3984L11.4657 23.0938L7.50829 24.1602C6.53344 24.4297 5.95318 25.4609 6.2201 26.457L6.69592 28.2734C6.95123 29.2695 7.96089 29.8672 8.93574 29.5977L18.1852 27.0547L26.5294 32L18.1852 36.9453L8.93574 34.4023C7.96089 34.1328 6.96284 34.7305 6.69592 35.7266L6.2201 37.543C5.96478 38.5391 6.53344 39.5703 7.50829 39.8398L11.4657 40.9297L6.91642 43.625C6.04602 44.1406 5.74428 45.2891 6.24331 46.1914L7.16013 47.8203C7.65915 48.7227 8.78487 49.0273 9.65527 48.5117L14.2045 45.8164L13.1485 49.8828C12.8931 50.8789 13.4618 51.9102 14.4366 52.1797L16.2007 52.6602C17.1755 52.9297 18.1736 52.332 18.4405 51.3359L20.9124 41.8438L29.2566 36.8984V46.8008L22.4907 53.75C21.7828 54.4766 21.7828 55.6719 22.4907 56.3984L23.7789 57.7227C24.4868 58.4492 25.6474 58.4492 26.3553 57.7227L29.245 54.7461V60.125C29.245 61.1563 30.0574 62 31.067 62H32.8891C33.8987 62 34.7111 61.1563 34.7111 60.125V54.7227L37.6008 57.6992C38.3087 58.4258 39.4693 58.4258 40.1772 57.6992L41.4654 56.375C42.1733 55.6484 42.1733 54.4531 41.4654 53.7266L34.6995 46.7773V36.875L43.0437 41.8203L45.5156 51.3125C45.7709 52.3086 46.7806 52.9063 47.7554 52.6367L49.5195 52.1562C50.4943 51.8867 51.0746 50.8555 50.8076 49.8594L49.7516 45.793L54.3008 48.4883C55.1712 49.0039 56.2853 48.6992 56.796 47.7969L57.7128 46.168C58.2466 45.2891 57.9565 44.1406 57.0745 43.625Z" fill="white"/>
</svg>
