<svg width="64" height="64" viewBox="0 0 64 64" fill="none" xmlns="http://www.w3.org/2000/svg">
<g clip-path="url(#clip0_5_117)">
<path d="M32 8V14M48.9707 15.0293L44.728 19.272M19.272 44.728L15.0293 48.9707M14 32H8M19.272 19.272L15.0293 15.0293M42 32C42 34.6522 40.9464 37.1957 39.0711 39.0711C37.1957 40.9464 34.6522 42 32 42C29.3478 42 26.8043 40.9464 24.9289 39.0711C23.0536 37.1957 22 34.6522 22 32C22 29.3478 23.0536 26.8043 24.9289 24.9289C26.8043 23.0536 29.3478 22 32 22C34.6522 22 37.1957 23.0536 39.0711 24.9289C40.9464 26.8043 42 29.3478 42 32Z" stroke="#F3F3F3" stroke-width="3" stroke-linecap="round" stroke-linejoin="round"/>
<path d="M28 49.3178C28 51.6204 28.8751 53.8288 30.4328 55.457C31.9904 57.0853 34.1031 58 36.306 58H57.0709C58.6911 58.0018 60.2607 57.4094 61.5061 56.326C62.7514 55.2426 63.5938 53.7368 63.8863 52.071C64.1788 50.4051 63.9029 48.6848 63.1068 47.2097C62.3107 45.7346 61.0447 44.5982 59.5294 43.9984C59.8719 42.9802 59.9352 41.8821 59.7122 40.8282C59.4891 39.7743 58.9886 38.8066 58.2671 38.0344C57.5457 37.2622 56.632 36.7162 55.6294 36.4582C54.6267 36.2002 53.575 36.2403 52.593 36.5742C51.9579 34.0274 50.3994 31.8391 48.2476 30.4725C46.0959 29.106 43.5197 28.6685 41.0648 29.2528C38.6098 29.8371 36.4688 31.3973 35.0951 33.6029C33.7214 35.8086 33.223 38.4865 33.7053 41.0696C32.0452 41.6424 30.6001 42.7478 29.5758 44.2287C28.5515 45.7095 28.0001 47.4904 28 49.3178Z" fill="#F2F2F2" stroke="#F2F2F2" stroke-width="1.5" stroke-linecap="round" stroke-linejoin="round"/>
</g>
<defs>
<clipPath id="clip0_5_117">
<rect width="64" height="64" fill="white"/>
</clipPath>
</defs>
</svg>
