<svg width="64" height="64" viewBox="0 0 64 64" fill="none" xmlns="http://www.w3.org/2000/svg">
<g clip-path="url(#clip0_5_125)">
<path d="M1 41.7312C1 45.7808 2.53141 49.6644 5.25733 52.5279C7.98325 55.3913 11.6804 57 15.5354 57H51.874C54.7095 57.0032 57.4562 55.9614 59.6356 54.0561C61.815 52.1508 63.2891 49.5027 63.801 46.5731C64.3128 43.6435 63.8301 40.6182 62.4369 38.024C61.0437 35.4298 58.8282 33.4313 56.1765 32.3766C56.7759 30.5858 56.8867 28.6547 56.4963 26.8013C56.106 24.9479 55.23 23.2461 53.9675 21.8881C52.7049 20.5301 51.106 19.5699 49.3514 19.1161C47.5967 18.6624 45.7562 18.733 44.0378 19.3201C42.9263 14.8413 40.199 10.9928 36.4334 8.58958C32.6677 6.18633 28.1595 5.41704 23.8633 6.44461C19.5671 7.47218 15.8204 10.2159 13.4164 14.0948C11.0125 17.9737 10.1402 22.6832 10.9842 27.2259C8.07902 28.2331 5.55022 30.1772 3.75766 32.7815C1.96511 35.3857 1.00012 38.5175 1 41.7312Z" fill="#F2F2F2" stroke="#F2F2F2" stroke-width="1.5" stroke-linecap="round" stroke-linejoin="round"/>
</g>
<defs>
<clipPath id="clip0_5_125">
<rect width="64" height="64" fill="white"/>
</clipPath>
</defs>
</svg>
