<svg width="64" height="64" viewBox="0 0 64 64" fill="none" xmlns="http://www.w3.org/2000/svg">
<path d="M10 27.222C10 30.0805 11.0626 32.8219 12.9541 34.8432C14.8455 36.8645 17.4109 38 20.0858 38H45.3003C47.2678 38.0023 49.1737 37.2669 50.6859 35.922C52.1982 34.577 53.221 32.7078 53.5762 30.6398C53.9314 28.5719 53.5964 26.4363 52.6297 24.6052C51.663 22.774 50.1257 21.3633 48.2857 20.6188C48.7016 19.3547 48.7785 17.9916 48.5076 16.6833C48.2368 15.375 47.629 14.1737 46.7529 13.2151C45.8769 12.2565 44.7674 11.5788 43.5499 11.2585C42.3324 10.9381 41.0554 10.988 39.863 11.4024C39.0917 8.24093 37.1993 5.52435 34.5864 3.82794C31.9735 2.13153 28.8454 1.5885 25.8643 2.31384C22.8833 3.03919 20.2835 4.97595 18.6155 7.71399C16.9475 10.452 16.3422 13.7764 16.9278 16.983C14.912 17.694 13.1573 19.0663 11.9135 20.9046C10.6697 22.7429 10.0001 24.9535 10 27.222Z" fill="#F2F2F2" stroke="#F2F2F2" stroke-width="1.5" stroke-linecap="round" stroke-linejoin="round"/>
<path fill-rule="evenodd" clip-rule="evenodd" d="M35.0427 36.0705C35.3617 36.1698 35.6404 36.3673 35.8382 36.6342C36.036 36.9011 36.1427 37.2235 36.1427 37.5545V45.3323H42.428C42.7154 45.3322 42.9974 45.4101 43.2432 45.5576C43.4889 45.7051 43.6892 45.9165 43.822 46.1688C43.9549 46.4211 44.0153 46.7047 43.9967 46.9886C43.9781 47.2726 43.8812 47.546 43.7165 47.7792L32.7172 63.3348C32.5257 63.6063 32.2518 63.8102 31.9352 63.917C31.6186 64.0237 31.2758 64.0276 30.9568 63.9282C30.6378 63.8288 30.3591 63.6312 30.1614 63.3641C29.9636 63.0971 29.8571 62.7746 29.8573 62.4435V54.6657H23.572C23.2846 54.6658 23.0026 54.5879 22.7569 54.4404C22.5111 54.2929 22.3108 54.0815 22.178 53.8292C22.0451 53.5769 21.9847 53.2933 22.0033 53.0094C22.0219 52.7254 22.1188 52.452 22.2835 52.2188L33.2828 36.6632C33.4746 36.3922 33.7486 36.1888 34.065 36.0825C34.3815 35.9762 34.724 35.9725 35.0427 36.0721V36.0705Z" fill="#F2F2F2"/>
</svg>
