<svg width="64" height="64" viewBox="0 0 64 64" fill="none" xmlns="http://www.w3.org/2000/svg">
<path d="M32 8V14M48.9707 15.0293L44.728 19.272M56 32H50M48.9707 48.9707L44.728 44.728M32 50V56M19.272 44.728L15.0293 48.9707M14 32H8M19.272 19.272L15.0293 15.0293M42 32C42 34.6522 40.9464 37.1957 39.0711 39.0711C37.1957 40.9464 34.6522 42 32 42C29.3478 42 26.8043 40.9464 24.9289 39.0711C23.0536 37.1957 22 34.6522 22 32C22 29.3478 23.0536 26.8043 24.9289 24.9289C26.8043 23.0536 29.3478 22 32 22C34.6522 22 37.1957 23.0536 39.0711 24.9289C40.9464 26.8043 42 29.3478 42 32Z" stroke="#F3F3F3" stroke-width="3" stroke-linecap="round" stroke-linejoin="round"/>
</svg>
